<svg xmlns="http://www.w3.org/2000/svg" width="1500" height="640" viewBox="0 0 1500 640"><style>text { font-family: ui-sans-serif, -apple-system, BlinkMacSystemFont, Segoe UI, sans-serif; fill: #0f172a; }.small { font-size: 12px; fill: #475569; }.axis { stroke: #334155; stroke-width: 1; }.grid { stroke: #cbd5e1; stroke-width: 1; stroke-dasharray: 4 4; }.title { font-size: 28px; font-weight: 700; }.subtitle { font-size: 14px; fill: #475569; }</style><rect width="1500" height="640" fill="#f8fafc" /><text x="90" y="44" class="title">OrderBook Score By Iteration</text><text x="90" y="68" class="subtitle">Source: results.tsv. AverageTime in us/op on a log scale.</text><rect x="90" y="90" width="1370" height="440" fill="#ffffff" stroke="#cbd5e1" /><line x1="90" y1="107.03" x2="1460" y2="107.03" class="grid" /><text x="78" y="111.03" text-anchor="end" class="small">1,000,000</text><line x1="90" y1="205.21" x2="1460" y2="205.21" class="grid" /><text x="78" y="209.21" text-anchor="end" class="small">500,000</text><line x1="90" y1="335.00" x2="1460" y2="335.00" class="grid" /><text x="78" y="339.00" text-anchor="end" class="small">200,000</text><line x1="90" y1="433.19" x2="1460" y2="433.19" class="grid" /><text x="78" y="437.19" text-anchor="end" class="small">100,000</text><line x1="90" y1="505.54" x2="1460" y2="505.54" class="grid" /><text x="78" y="509.54" text-anchor="end" class="small">60,000</text><line x1="90" y1="505.54" x2="1460" y2="505.54" stroke="#0ea5e9" stroke-width="2" stroke-dasharray="8 6" /><text x="1456" y="497.54" text-anchor="end" class="small">target: 60,000 us</text><polyline fill="none" stroke="#64748b" stroke-width="2" points="90.00,109.80 102.02,373.85 114.04,309.24 126.05,382.94 138.07,415.42 150.09,425.89 162.11,428.24 174.12,407.70 186.14,441.90 198.16,200.67 210.18,428.97 222.19,422.12 234.21,444.50 246.23,447.45 258.25,444.01 270.26,439.82 282.28,446.67 294.30,437.05 306.32,448.03 318.33,432.45 330.35,447.74 342.37,449.30 354.39,446.66 366.40,442.83 378.42,446.96 390.44,442.84 402.46,443.94 414.47,452.11 426.49,449.36 438.51,453.49 450.53,453.22 462.54,451.85 474.56,450.28 486.58,441.11 498.60,434.51 510.61,420.15 522.63,451.51 534.65,453.35 546.67,447.51 558.68,450.89 570.70,450.64 582.72,451.31 594.74,451.10 606.75,450.26 618.77,207.30 630.79,453.44 642.81,291.57 654.82,449.03 666.84,356.12 678.86,443.59 690.88,440.43 702.89,457.15 714.91,445.93 726.93,443.34 738.95,404.59 750.96,457.16 762.98,352.77 775.00,455.31 787.02,368.21 799.04,453.05 811.05,436.96 823.07,454.49 835.09,460.00 847.11,455.86 871.14,458.43 883.16,208.01 895.18,456.77 907.19,459.28 919.21,459.40 931.23,452.09 943.25,416.98 955.26,456.46 967.28,450.34 979.30,455.75 991.32,459.44 1003.33,454.23 1015.35,403.36 1027.37,458.27 1039.39,464.77 1051.40,467.05 1063.42,474.09 1075.44,472.71 1087.46,462.00 1099.47,459.61 1111.49,462.06 1123.51,472.09 1135.53,469.22 1147.54,471.95 1159.56,473.96 1171.58,475.37 1183.60,474.03 1195.61,472.31 1207.63,473.15 1219.65,475.60 1231.67,464.90 1243.68,477.97 1255.70,475.43 1267.72,477.64 1279.74,479.80 1291.75,478.88 1303.77,480.13 1315.79,477.70 1327.81,481.12 1339.82,481.86 1351.84,477.89 1363.86,480.95 1375.88,477.86 1387.89,481.06 1399.91,479.44 1411.93,479.94 1423.95,428.29 1435.96,479.36 1447.98,506.50 1460.00,506.98" /><polygon points="90.0,103.79674050935853 96.0,109.79674050935853 90.0,115.79674050935853 84.0,109.79674050935853" fill="#1a7f37" stroke="#ffffff" stroke-width="1" /><circle cx="102.01754385964912" cy="373.8525106164227" r="5" fill="#1a7f37" stroke="#ffffff" stroke-width="1" /><rect x="109.03508771929825" y="304.2434394833666" width="10" height="10" fill="#cf222e" stroke="#ffffff" stroke-width="1" /><circle cx="126.05263157894737" cy="382.93677860614713" r="5" fill="#1a7f37" stroke="#ffffff" stroke-width="1" /><rect x="133.0701754385965" y="410.4249419504082" width="10" height="10" fill="#1a7f37" stroke="#ffffff" stroke-width="1" /><circle cx="150.08771929824562" cy="425.8901117293061" r="5" fill="#1a7f37" stroke="#ffffff" stroke-width="1" /><rect x="157.10526315789474" y="423.24273618699186" width="10" height="10" fill="#1a7f37" stroke="#ffffff" stroke-width="1" /><circle cx="174.12280701754386" cy="407.6958217050999" r="5" fill="#cf222e" stroke="#ffffff" stroke-width="1" /><rect x="181.140350877193" y="436.89759240287685" width="10" height="10" fill="#1a7f37" stroke="#ffffff" stroke-width="1" /><circle cx="198.1578947368421" cy="200.66889464334957" r="5" fill="#cf222e" stroke="#ffffff" stroke-width="1" /><rect x="205.17543859649123" y="423.9652077983303" width="10" height="10" fill="#cf222e" stroke="#ffffff" stroke-width="1" /><circle cx="222.19298245614036" cy="422.11998010039326" r="5" fill="#cf222e" stroke="#ffffff" stroke-width="1" /><rect x="229.21052631578948" y="439.49533771277385" width="10" height="10" fill="#1a7f37" stroke="#ffffff" stroke-width="1" /><circle cx="246.2280701754386" cy="447.4486662653656" r="5" fill="#1a7f37" stroke="#ffffff" stroke-width="1" /><rect x="253.24561403508773" y="439.01447360583603" width="10" height="10" fill="#cf222e" stroke="#ffffff" stroke-width="1" /><circle cx="270.2631578947369" cy="439.8234314698342" r="5" fill="#cf222e" stroke="#ffffff" stroke-width="1" /><rect x="277.280701754386" y="441.67237347973247" width="10" height="10" fill="#cf222e" stroke="#ffffff" stroke-width="1" /><circle cx="294.29824561403507" cy="437.0516134683711" r="5" fill="#cf222e" stroke="#ffffff" stroke-width="1" /><rect x="301.3157894736842" y="443.02863433607223" width="10" height="10" fill="#1a7f37" stroke="#ffffff" stroke-width="1" /><circle cx="318.33333333333337" cy="432.44927735454553" r="5" fill="#cf222e" stroke="#ffffff" stroke-width="1" /><rect x="325.35087719298247" y="442.74421934984986" width="10" height="10" fill="#cf222e" stroke="#ffffff" stroke-width="1" /><circle cx="342.36842105263156" cy="449.3012892747888" r="5" fill="#cf222e" stroke="#ffffff" stroke-width="1" /><rect x="349.3859649122807" y="441.65937119018224" width="10" height="10" fill="#cf222e" stroke="#ffffff" stroke-width="1" /><circle cx="366.40350877192986" cy="442.82907692295925" r="5" fill="#cf222e" stroke="#ffffff" stroke-width="1" /><rect x="373.42105263157896" y="441.9582792846849" width="10" height="10" fill="#cf222e" stroke="#ffffff" stroke-width="1" /><circle cx="390.43859649122805" cy="442.83574253966214" r="5" fill="#cf222e" stroke="#ffffff" stroke-width="1" /><rect x="397.4561403508772" y="438.9357850951899" width="10" height="10" fill="#cf222e" stroke="#ffffff" stroke-width="1" /><circle cx="414.47368421052636" cy="452.1125882462171" r="5" fill="#1a7f37" stroke="#ffffff" stroke-width="1" /><rect x="421.49122807017545" y="444.36375322921094" width="10" height="10" fill="#cf222e" stroke="#ffffff" stroke-width="1" /><circle cx="438.50877192982455" cy="453.4919264007809" r="5" fill="#1a7f37" stroke="#ffffff" stroke-width="1" /><rect x="445.5263157894737" y="448.2160240107691" width="10" height="10" fill="#cf222e" stroke="#ffffff" stroke-width="1" /><circle cx="462.54385964912285" cy="451.8519011158353" r="5" fill="#cf222e" stroke="#ffffff" stroke-width="1" /><rect x="469.56140350877195" y="445.27750938841194" width="10" height="10" fill="#cf222e" stroke="#ffffff" stroke-width="1" /><circle cx="486.57894736842104" cy="441.1085543130687" r="5" fill="#cf222e" stroke="#ffffff" stroke-width="1" /><circle cx="498.5964912280702" cy="434.51134731474326" r="5" fill="#cf222e" stroke="#ffffff" stroke-width="1" /><rect x="505.61403508771934" y="415.147764085975" width="10" height="10" fill="#cf222e" stroke="#ffffff" stroke-width="1" /><circle cx="522.6315789473684" cy="451.51304575445124" r="5" fill="#cf222e" stroke="#ffffff" stroke-width="1" /><rect x="529.6491228070175" y="448.35038123734665" width="10" height="10" fill="#cf222e" stroke="#ffffff" stroke-width="1" /><circle cx="546.6666666666667" cy="447.5111864586279" r="5" fill="#cf222e" stroke="#ffffff" stroke-width="1" /><rect x="553.6842105263158" y="445.88752176167816" width="10" height="10" fill="#cf222e" stroke="#ffffff" stroke-width="1" /><circle cx="570.7017543859649" cy="450.64182719571994" r="5" fill="#cf222e" stroke="#ffffff" stroke-width="1" /><circle cx="582.719298245614" cy="451.3146259999459" r="5" fill="#cf222e" stroke="#ffffff" stroke-width="1" /><circle cx="594.7368421052631" cy="451.1012171084964" r="5" fill="#cf222e" stroke="#ffffff" stroke-width="1" /><rect x="601.7543859649123" y="445.2640747802877" width="10" height="10" fill="#cf222e" stroke="#ffffff" stroke-width="1" /><circle cx="618.7719298245614" cy="207.30320373891243" r="5" fill="#cf222e" stroke="#ffffff" stroke-width="1" /><rect x="625.7894736842105" y="448.4418252967656" width="10" height="10" fill="#cf222e" stroke="#ffffff" stroke-width="1" /><circle cx="642.8070175438597" cy="291.5694863906324" r="5" fill="#cf222e" stroke="#ffffff" stroke-width="1" /><rect x="649.8245614035088" y="444.02998385556185" width="10" height="10" fill="#cf222e" stroke="#ffffff" stroke-width="1" /><circle cx="666.8421052631579" cy="356.11725366478817" r="5" fill="#cf222e" stroke="#ffffff" stroke-width="1" /><rect x="673.859649122807" y="438.58817988222074" width="10" height="10" fill="#cf222e" stroke="#ffffff" stroke-width="1" /><circle cx="690.8771929824561" cy="440.4292817078583" r="5" fill="#cf222e" stroke="#ffffff" stroke-width="1" /><rect x="697.8947368421053" y="452.1535569522173" width="10" height="10" fill="#1a7f37" stroke="#ffffff" stroke-width="1" /><circle cx="714.9122807017544" cy="445.9297924191217" r="5" fill="#cf222e" stroke="#ffffff" stroke-width="1" /><rect x="721.9298245614035" y="438.3436571050187" width="10" height="10" fill="#cf222e" stroke="#ffffff" stroke-width="1" /><circle cx="738.9473684210527" cy="404.59070620674527" r="5" fill="#cf222e" stroke="#ffffff" stroke-width="1" /><rect x="745.9649122807018" y="452.156043869022" width="10" height="10" fill="#1a7f37" stroke="#ffffff" stroke-width="1" /><circle cx="762.9824561403509" cy="352.77407665693295" r="5" fill="#cf222e" stroke="#ffffff" stroke-width="1" /><rect x="770.0" y="450.3062871568945" width="10" height="10" fill="#cf222e" stroke="#ffffff" stroke-width="1" /><circle cx="787.0175438596491" cy="368.21385403315395" r="5" fill="#cf222e" stroke="#ffffff" stroke-width="1" /><rect x="794.0350877192983" y="448.05327016344154" width="10" height="10" fill="#cf222e" stroke="#ffffff" stroke-width="1" /><circle cx="811.0526315789474" cy="436.9583269612153" r="5" fill="#cf222e" stroke="#ffffff" stroke-width="1" /><rect x="818.0701754385965" y="449.48808901019095" width="10" height="10" fill="#cf222e" stroke="#ffffff" stroke-width="1" /><circle cx="835.0877192982457" cy="459.9990448270662" r="5" fill="#1a7f37" stroke="#ffffff" stroke-width="1" /><rect x="842.1052631578948" y="450.8640155803357" width="10" height="10" fill="#cf222e" stroke="#ffffff" stroke-width="1" /><rect x="866.140350877193" y="453.4282267268298" width="10" height="10" fill="#cf222e" stroke="#ffffff" stroke-width="1" /><circle cx="883.1578947368421" cy="208.00586688560273" r="5" fill="#cf222e" stroke="#ffffff" stroke-width="1" /><rect x="890.1754385964913" y="451.76714116639585" width="10" height="10" fill="#cf222e" stroke="#ffffff" stroke-width="1" /><rect x="902.1929824561404" y="454.27900260257866" width="10" height="10" fill="#cf222e" stroke="#ffffff" stroke-width="1" /><circle cx="919.2105263157895" cy="459.39928979452907" r="5" fill="#cf222e" stroke="#ffffff" stroke-width="1" /><rect x="926.2280701754387" y="447.08645319305367" width="10" height="10" fill="#cf222e" stroke="#ffffff" stroke-width="1" /><circle cx="943.2456140350878" cy="416.9848140762188" r="5" fill="#cf222e" stroke="#ffffff" stroke-width="1" /><rect x="950.2631578947369" y="451.45765191742953" width="10" height="10" fill="#cf222e" stroke="#ffffff" stroke-width="1" /><circle cx="967.280701754386" cy="450.3359874441801" r="5" fill="#cf222e" stroke="#ffffff" stroke-width="1" /><rect x="974.2982456140351" y="450.7454145308589" width="10" height="10" fill="#cf222e" stroke="#ffffff" stroke-width="1" /><circle cx="991.3157894736843" cy="459.43949228758305" r="5" fill="#cf222e" stroke="#ffffff" stroke-width="1" /><rect x="998.3333333333334" y="449.2258098743403" width="10" height="10" fill="#cf222e" stroke="#ffffff" stroke-width="1" /><circle cx="1015.3508771929825" cy="403.359231072715" r="5" fill="#cf222e" stroke="#ffffff" stroke-width="1" /><rect x="1022.3684210526317" y="453.26536147664274" width="10" height="10" fill="#cf222e" stroke="#ffffff" stroke-width="1" /><circle cx="1039.3859649122808" cy="464.76752705306336" r="5" fill="#1a7f37" stroke="#ffffff" stroke-width="1" /><rect x="1046.4035087719299" y="462.0547198124742" width="10" height="10" fill="#1a7f37" stroke="#ffffff" stroke-width="1" /><circle cx="1063.421052631579" cy="474.0869366089913" r="5" fill="#1a7f37" stroke="#ffffff" stroke-width="1" /><rect x="1070.438596491228" y="467.71158354328065" width="10" height="10" fill="#cf222e" stroke="#ffffff" stroke-width="1" /><circle cx="1087.4561403508774" cy="462.00171199843135" r="5" fill="#cf222e" stroke="#ffffff" stroke-width="1" /><rect x="1094.4736842105262" y="454.6087037803291" width="10" height="10" fill="#cf222e" stroke="#ffffff" stroke-width="1" /><circle cx="1111.4912280701756" cy="462.06282312361094" r="5" fill="#cf222e" stroke="#ffffff" stroke-width="1" /><rect x="1118.5087719298247" y="467.0909689089605" width="10" height="10" fill="#cf222e" stroke="#ffffff" stroke-width="1" /><circle cx="1135.5263157894738" cy="469.2219185862049" r="5" fill="#cf222e" stroke="#ffffff" stroke-width="1" /><rect x="1142.5438596491229" y="466.95130420181493" width="10" height="10" fill="#cf222e" stroke="#ffffff" stroke-width="1" /><circle cx="1159.561403508772" cy="473.960481122472" r="5" fill="#cf222e" stroke="#ffffff" stroke-width="1" /><rect x="1166.578947368421" y="470.3665660953763" width="10" height="10" fill="#1a7f37" stroke="#ffffff" stroke-width="1" /><circle cx="1183.5964912280701" cy="474.03177503040115" r="5" fill="#cf222e" stroke="#ffffff" stroke-width="1" /><rect x="1190.6140350877195" y="467.3120516049925" width="10" height="10" fill="#cf222e" stroke="#ffffff" stroke-width="1" /><circle cx="1207.6315789473686" cy="473.1490888397247" r="5" fill="#cf222e" stroke="#ffffff" stroke-width="1" /><rect x="1214.6491228070176" y="470.5979823830606" width="10" height="10" fill="#1a7f37" stroke="#ffffff" stroke-width="1" /><circle cx="1231.6666666666667" cy="464.89847770105837" r="5" fill="#cf222e" stroke="#ffffff" stroke-width="1" /><rect x="1238.6842105263158" y="472.9688514566853" width="10" height="10" fill="#1a7f37" stroke="#ffffff" stroke-width="1" /><circle cx="1255.701754385965" cy="475.4338963381376" r="5" fill="#cf222e" stroke="#ffffff" stroke-width="1" /><rect x="1262.719298245614" y="472.6383336076999" width="10" height="10" fill="#cf222e" stroke="#ffffff" stroke-width="1" /><circle cx="1279.7368421052631" cy="479.7979646163202" r="5" fill="#1a7f37" stroke="#ffffff" stroke-width="1" /><rect x="1286.7543859649122" y="473.88077299542584" width="10" height="10" fill="#cf222e" stroke="#ffffff" stroke-width="1" /><circle cx="1303.7719298245615" cy="480.1282298384084" r="5" fill="#1a7f37" stroke="#ffffff" stroke-width="1" /><rect x="1310.7894736842106" y="472.7024123433551" width="10" height="10" fill="#cf222e" stroke="#ffffff" stroke-width="1" /><circle cx="1327.8070175438597" cy="481.1182790499661" r="5" fill="#1a7f37" stroke="#ffffff" stroke-width="1" /><rect x="1334.8245614035088" y="476.86458800136876" width="10" height="10" fill="#1a7f37" stroke="#ffffff" stroke-width="1" /><circle cx="1351.842105263158" cy="477.885118586922" r="5" fill="#cf222e" stroke="#ffffff" stroke-width="1" /><rect x="1358.859649122807" y="475.9534160661028" width="10" height="10" fill="#cf222e" stroke="#ffffff" stroke-width="1" /><circle cx="1375.877192982456" cy="477.8570464021757" r="5" fill="#cf222e" stroke="#ffffff" stroke-width="1" /><rect x="1382.8947368421054" y="476.05575080217073" width="10" height="10" fill="#cf222e" stroke="#ffffff" stroke-width="1" /><circle cx="1399.9122807017545" cy="479.43515899407294" r="5" fill="#cf222e" stroke="#ffffff" stroke-width="1" /><rect x="1406.9298245614036" y="474.94306549015164" width="10" height="10" fill="#cf222e" stroke="#ffffff" stroke-width="1" /><circle cx="1423.9473684210527" cy="428.29409922730724" r="5" fill="#cf222e" stroke="#ffffff" stroke-width="1" /><rect x="1430.9649122807018" y="474.36379838271284" width="10" height="10" fill="#cf222e" stroke="#ffffff" stroke-width="1" /><circle cx="1447.982456140351" cy="506.497724645398" r="5" fill="#1a7f37" stroke="#ffffff" stroke-width="1" /><rect x="1455.0" y="501.9798199677996" width="10" height="10" fill="#1a7f37" stroke="#ffffff" stroke-width="1" /><line x1="90.00" y1="530" x2="90.00" y2="536" class="axis" /><text x="90.00" y="554" text-anchor="middle" class="small">baseline</text><line x1="210.18" y1="530" x2="210.18" y2="536" class="axis" /><text x="210.18" y="554" text-anchor="middle" class="small">10</text><line x1="330.35" y1="530" x2="330.35" y2="536" class="axis" /><text x="330.35" y="554" text-anchor="middle" class="small">20</text><line x1="450.53" y1="530" x2="450.53" y2="536" class="axis" /><text x="450.53" y="554" text-anchor="middle" class="small">30</text><line x1="570.70" y1="530" x2="570.70" y2="536" class="axis" /><text x="570.70" y="554" text-anchor="middle" class="small">40</text><line x1="690.88" y1="530" x2="690.88" y2="536" class="axis" /><text x="690.88" y="554" text-anchor="middle" class="small">50</text><line x1="811.05" y1="530" x2="811.05" y2="536" class="axis" /><text x="811.05" y="554" text-anchor="middle" class="small">60</text><line x1="931.23" y1="530" x2="931.23" y2="536" class="axis" /><text x="931.23" y="554" text-anchor="middle" class="small">70</text><line x1="1051.40" y1="530" x2="1051.40" y2="536" class="axis" /><text x="1051.40" y="554" text-anchor="middle" class="small">80</text><line x1="1171.58" y1="530" x2="1171.58" y2="536" class="axis" /><text x="1171.58" y="554" text-anchor="middle" class="small">90</text><line x1="1291.75" y1="530" x2="1291.75" y2="536" class="axis" /><text x="1291.75" y="554" text-anchor="middle" class="small">100</text><line x1="1411.93" y1="530" x2="1411.93" y2="536" class="axis" /><text x="1411.93" y="554" text-anchor="middle" class="small">110</text><line x1="1460.00" y1="530" x2="1460.00" y2="536" class="axis" /><text x="1460.00" y="554" text-anchor="middle" class="small">114</text><text x="775.00" y="622" text-anchor="middle" class="small">Iteration index in results.tsv</text><rect x="1250" y="52" width="190" height="100" rx="10" fill="#ffffff" stroke="#cbd5e1" /><circle cx="1268" cy="70" r="4" fill="#1a7f37" stroke="none" stroke-width="1" /><text x="1284" y="74" class="small">keep</text><circle cx="1268" cy="86" r="4" fill="#cf222e" stroke="none" stroke-width="1" /><text x="1284" y="90" class="small">discard</text><circle cx="1268" cy="102" r="4" fill="#8b5cf6" stroke="none" stroke-width="1" /><text x="1284" y="106" class="small">tick</text><rect x="1264" y="114" width="8" height="8" fill="#d97706" stroke="none" stroke-width="1" /><text x="1284" y="122" class="small">tock</text><polygon points="1268,129 1273,134 1268,139 1263,134" fill="#0969da" stroke="none" stroke-width="1" /><text x="1284" y="138" class="small">baseline</text></svg>